<svg width="100" height="100" viewBox="0 0 100 100" fill="none" xmlns="http://www.w3.org/2000/svg">
<circle opacity="0.8" cx="50" cy="50" r="50" fill="#1A1A1A"/>
<path d="M29.3931 57H32.9131C36.0331 57 38.6091 55.096 38.6091 51.4C38.6091 47.704 36.0331 45.8 32.9131 45.8H29.3931V57ZM31.2331 55.352V47.432H32.7851C34.8011 47.432 36.6891 48.536 36.6891 51.4C36.6891 54.264 34.8011 55.352 32.7851 55.352H31.2331ZM49.2593 57L46.1873 51.928C47.3713 51.416 48.0753 50.328 48.0753 49.016C48.0753 47.064 46.6673 45.8 44.5073 45.8H40.2993L40.3153 57H42.1873V52.248H44.2673L47.0993 57H49.2593ZM42.1873 47.432H44.2353C45.4673 47.432 46.1713 48.024 46.1713 49.016C46.1713 50.024 45.4673 50.6 44.2353 50.6H42.1873V47.432ZM58.1169 57H60.0529L55.6849 45.8H53.9409L49.5889 57H51.5249L52.5169 54.36H57.1249L58.1169 57ZM53.1249 52.744L54.8209 48.264L56.5169 52.744H53.1249ZM65.7902 57.128C67.2462 57.128 68.5582 56.488 69.0702 55.496V57H70.7662V51.096H65.4382V52.648H69.0222C68.9262 54.328 67.7102 55.48 65.8542 55.48C63.7582 55.48 62.2542 54.024 62.2542 51.4C62.2542 48.776 63.7582 47.304 65.8702 47.304C67.5022 47.304 68.6702 48.232 68.9582 49.704L70.8142 49.32C70.3822 47.064 68.4942 45.672 65.8862 45.672C63.0222 45.672 60.3502 47.576 60.3502 51.4C60.3502 55.224 62.9742 57.128 65.7902 57.128Z" fill="white"/>
</svg>
