<svg width="100" height="100" viewBox="0 0 100 100" fill="none" xmlns="http://www.w3.org/2000/svg">
<circle opacity="0.8" cx="50" cy="50" r="50" fill="#1A1A1A"/>
<path d="M34.4279 57H36.2679L40.4119 45.8H38.5079L35.3399 54.792L32.2199 45.8H30.2999L34.4279 57ZM41.6353 57H43.5073V45.8H41.6353V57ZM45.7134 57H53.2014V55.352H47.5854V51.88H51.9694V50.248H47.5854V47.432H53.0254V45.8H45.7134V57ZM57.3965 57H59.3485L61.8285 48.456L64.2925 57H66.2765L69.5725 45.8H67.6365L65.2525 54.792L62.8525 45.8H60.7885L58.3725 54.792L56.0045 45.8H54.0685L57.3965 57Z" fill="white"/>
</svg>
